<mxfile host="app.diagrams.net" modified="2023-12-19T15:19:57.595Z" agent="Mozilla/5.0 (Windows NT 10.0; Win64; x64) AppleWebKit/537.36 (KHTML, like Gecko) Chrome/120.0.0.0 Safari/537.36" version="22.1.11" etag="0ZoKEbdBqkTsS8OXgt0j" type="github">
  <diagram name="Page-1" id="lDDgJx3qJ_EV5p6jYwC4">
    <mxGraphModel>
      <root>
        <mxCell id="0" />
        <mxCell id="1" parent="0" />
      </root>
    </mxGraphModel>
  </diagram>
</mxfile>
